<?xml version="1.0" encoding="utf-8"?>
<!-- Generator: Adobe Illustrator 26.5.0, SVG Export Plug-In . SVG Version: 6.00 Build 0)  -->
<svg version="1.1" id="Ecosystem_00000044888267717553072680000007385162658042438573_"
	 xmlns="http://www.w3.org/2000/svg" xmlns:xlink="http://www.w3.org/1999/xlink" x="0px" y="0px" viewBox="0 0 600 600"
	 style="enable-background:new 0 0 600 600;" xml:space="preserve">
<style type="text/css">
	.st0{fill:#FF6333;}
	.st1{fill:#FFFFFF;}
</style>
<path class="st0" d="M380.5,231.3c-9.7,0-27-4.9-45.2-12.8c-19.4-8.4-31.2-16.4-33.9-20.2c-0.7-1.1-2-1.7-3.3-1.7s-2.5,0.6-3.3,1.7
	c-7.2,10.2-58.9,33-79.2,33c-2.2,0-4,1.8-4,4v82.4c0,17.6,13.8,37.2,41,58.4c19.8,15.4,41.2,27,44.3,27.8c0.3,0.1,0.7,0.1,1,0.1
	s0.7,0,1-0.1c3.3-0.9,24.6-13.1,44.3-28.4c27.2-21,41-39,41-53.5v-86.7C384.5,233.1,382.7,231.3,380.5,231.3z"/>
<path class="st1" d="M263.6,459.8c-0.3,0-0.6,0-0.9-0.1c-3.9-0.9-7.8-1.9-11.6-3.1c-2.1-0.6-3.3-2.9-2.7-5c0.6-2.1,2.9-3.3,5-2.7
	c3.6,1.1,7.3,2.1,11,2.9c2.2,0.5,3.5,2.6,3,4.8C267.1,458.5,265.5,459.8,263.6,459.8z M338.8,458.7c-1.8,0-3.4-1.2-3.9-3
	c-0.6-2.1,0.7-4.3,2.9-4.9c3.7-0.9,7.3-2,10.9-3.2c2.1-0.7,4.4,0.4,5.1,2.5s-0.4,4.4-2.5,5.1c-3.8,1.3-7.6,2.4-11.5,3.4
	C339.5,458.6,339.1,458.7,338.8,458.7z M235.9,450.8c-0.5,0-1.1-0.1-1.6-0.3c-3.6-1.6-7.3-3.3-10.8-5.1c-2-1-2.7-3.4-1.7-5.4
	s3.4-2.7,5.4-1.7c3.4,1.7,6.8,3.4,10.3,4.9c2,0.9,3,3.2,2.1,5.3C238.9,449.9,237.4,450.8,235.9,450.8z M366.3,448.8
	c-1.5,0-2.9-0.9-3.6-2.3c-0.9-2-0.1-4.4,1.9-5.3c3.4-1.6,6.8-3.3,10.1-5.2c1.9-1.1,4.4-0.4,5.4,1.5c1.1,1.9,0.4,4.4-1.5,5.4
	c-3.5,1.9-7,3.8-10.6,5.4C367.4,448.7,366.8,448.8,366.3,448.8z M210.3,436.9c-0.8,0-1.5-0.2-2.2-0.7c-3.3-2.2-6.6-4.6-9.7-7
	c-1.7-1.4-2.1-3.9-0.7-5.6c1.4-1.7,3.9-2.1,5.6-0.7c3,2.3,6.1,4.6,9.2,6.7c1.8,1.2,2.3,3.7,1.1,5.5
	C212.8,436.2,211.6,436.9,210.3,436.9z M391.4,434.2c-1.2,0-2.5-0.6-3.3-1.7c-1.3-1.8-0.9-4.3,0.9-5.6c3.1-2.2,6.1-4.5,9-6.9
	c1.7-1.4,4.2-1.2,5.6,0.5s1.2,4.2-0.5,5.6c-3.1,2.5-6.3,5-9.5,7.3C393.1,433.9,392.2,434.2,391.4,434.2z M187.6,418.5
	c-1,0-2-0.4-2.8-1.1c-2.8-2.8-5.6-5.7-8.3-8.6c-1.5-1.7-1.3-4.2,0.3-5.6s4.2-1.3,5.6,0.3c2.5,2.8,5.2,5.6,7.9,8.2
	c1.6,1.5,1.6,4.1,0.1,5.7C189.7,418.1,188.6,418.5,187.6,418.5z M452.3,357.4l-7.4-3l1.3-3.7c0.7-2.1,3-3.2,5.1-2.5s3.2,3,2.5,5.1
	L452.3,357.4z M144.2,343.7c-1.8,0-3.4-1.2-3.9-3c-1-3.8-1.8-7.8-2.5-11.7c-0.4-2.2,1.1-4.3,3.2-4.6c2.2-0.4,4.3,1.1,4.6,3.2
	c0.7,3.7,1.5,7.5,2.4,11.1c0.5,2.1-0.7,4.3-2.9,4.9C144.9,343.7,144.5,343.7,144.2,343.7z M454.7,339.1c-0.3,0-0.6,0-0.9-0.1
	c-2.2-0.5-3.5-2.6-3-4.8c0.8-3.7,1.5-7.4,2.1-11.2c0.3-2.2,2.4-3.7,4.5-3.4c2.2,0.3,3.7,2.4,3.4,4.5c-0.6,3.9-1.3,7.9-2.2,11.8
	C458.2,337.8,456.6,339.1,454.7,339.1z M139.6,315c-2.1,0-3.8-1.6-4-3.7c-0.3-3.7-0.4-7.5-0.4-11.2c0-4,0.1-8,0.4-12
	c0.2-2.2,2.1-3.9,4.3-3.7c2.2,0.2,3.9,2.1,3.7,4.3c-0.3,3.8-0.4,7.6-0.4,11.4c0,3.6,0.1,7.2,0.4,10.7c0.1,2.2-1.5,4.1-3.7,4.3
	C139.8,315,139.7,315,139.6,315z M458.5,310.2c-0.1,0-0.1,0-0.2,0c-2.2-0.1-3.9-1.9-3.8-4.1c0.1-2,0.1-4,0.1-6c0-1.8,0-3.6-0.1-5.4
	c-0.1-2.2,1.7-4.1,3.9-4.1c2.2-0.1,4.1,1.7,4.1,3.9c0.1,1.9,0.1,3.8,0.1,5.6c0,2.1,0,4.2-0.1,6.3
	C462.4,308.5,460.6,310.2,458.5,310.2z M457,281.1c-2,0-3.7-1.4-4-3.4c-0.5-3.7-1.2-7.5-2-11.2c-0.5-2.2,0.9-4.3,3-4.8
	c2.2-0.5,4.3,0.9,4.8,3c0.9,3.9,1.6,7.8,2.1,11.8c0.3,2.2-1.2,4.2-3.4,4.5C457.3,281.1,457.1,281.1,457,281.1z M141.9,275
	c-0.2,0-0.5,0-0.7-0.1c-2.2-0.4-3.6-2.5-3.2-4.7c0.7-3.9,1.6-7.8,2.6-11.7c0.6-2.1,2.7-3.4,4.9-2.9c2.1,0.6,3.4,2.7,2.9,4.9
	c-1,3.7-1.8,7.4-2.5,11.1C145.4,273.6,143.7,275,141.9,275z M423.4,193.7l-6.5,4.7l-5.7-6.3c-1.5-1.6-1.5-4.1,0.1-5.7
	c1.6-1.5,4.1-1.5,5.7,0.1L423.4,193.7z M180,197.4c-1,0-1.9-0.3-2.7-1c-1.6-1.5-1.8-4-0.3-5.6c2.7-3,5.5-5.9,8.3-8.6
	c1.6-1.5,4.1-1.5,5.7,0.1c1.5,1.6,1.5,4.1-0.1,5.7c-2.7,2.6-5.4,5.4-7.9,8.2C182.2,196.9,181.1,197.4,180,197.4z M401.3,181.4
	c-0.9,0-1.8-0.3-2.6-0.9c-2.9-2.4-5.9-4.8-9-7c-1.8-1.3-2.2-3.8-0.9-5.6c1.3-1.8,3.8-2.2,5.6-0.9c3.2,2.3,6.4,4.8,9.5,7.3
	c1.7,1.4,1.9,3.9,0.5,5.6C403.5,180.9,402.4,181.4,401.3,181.4z M201.4,177.5c-1.2,0-2.4-0.5-3.2-1.6c-1.3-1.7-1-4.3,0.7-5.6
	c3.1-2.4,6.4-4.8,9.7-7c1.8-1.2,4.3-0.7,5.5,1.1s0.7,4.3-1.1,5.5c-3.1,2.1-6.3,4.3-9.3,6.6C203.1,177.2,202.3,177.5,201.4,177.5z
	 M377.3,164.8c-0.7,0-1.3-0.2-2-0.5c-3.3-1.9-6.7-3.6-10.1-5.2c-2-0.9-2.9-3.3-1.9-5.3s3.3-2.9,5.3-1.9c3.6,1.7,7.2,3.5,10.6,5.5
	c1.9,1.1,2.6,3.5,1.5,5.4C380,164.1,378.7,164.8,377.3,164.8z M226,161.9c-1.5,0-2.9-0.8-3.6-2.2c-1-2-0.2-4.4,1.7-5.4
	c3.5-1.8,7.2-3.5,10.8-5.1c2-0.9,4.4,0.1,5.2,2.1c0.9,2-0.1,4.4-2.1,5.2c-3.5,1.5-6.9,3.1-10.3,4.8
	C227.2,161.7,226.6,161.9,226,161.9z M350.7,152.9c-0.4,0-0.9-0.1-1.3-0.2c-3.6-1.2-7.2-2.3-10.9-3.3c-2.1-0.6-3.4-2.7-2.9-4.9
	c0.6-2.1,2.7-3.4,4.9-2.9c3.8,1,7.7,2.2,11.5,3.5c2.1,0.7,3.2,3,2.5,5.1C353.9,151.8,352.3,152.9,350.7,152.9z M253,151
	c-1.7,0-3.3-1.1-3.8-2.9c-0.6-2.1,0.6-4.3,2.7-5c3.8-1.1,7.7-2.2,11.6-3c2.2-0.5,4.3,0.9,4.8,3c0.5,2.2-0.9,4.3-3,4.8
	c-3.7,0.8-7.4,1.8-11,2.9C253.8,150.9,253.4,151,253,151z"/>
<g>
	<path class="st1" d="M436.3,254.2c-18.6,0-33.7-15.1-33.7-33.7s15.1-33.7,33.7-33.7s33.7,15.1,33.7,33.7S454.9,254.2,436.3,254.2z
		 M436.3,194.8c-14.2,0-25.7,11.5-25.7,25.7s11.5,25.7,25.7,25.7s25.7-11.5,25.7-25.7S450.5,194.8,436.3,194.8z"/>
</g>
<g>
	<path class="st1" d="M436.3,413.9c-18.6,0-33.7-15.1-33.7-33.7s15.1-33.7,33.7-33.7s33.7,15.1,33.7,33.7
		C470,398.7,454.9,413.9,436.3,413.9z M436.3,354.4c-14.2,0-25.7,11.5-25.7,25.7s11.5,25.7,25.7,25.7s25.7-11.5,25.7-25.7
		S450.5,354.4,436.3,354.4z"/>
</g>
<g>
	<path class="st1" d="M159.8,413.9c-18.6,0-33.7-15.1-33.7-33.7s15.1-33.7,33.7-33.7s33.7,15.1,33.7,33.7
		C193.5,398.7,178.4,413.9,159.8,413.9z M159.8,354.4c-14.2,0-25.7,11.5-25.7,25.7s11.5,25.7,25.7,25.7s25.7-11.5,25.7-25.7
		S174,354.4,159.8,354.4z"/>
</g>
<g>
	<path class="st1" d="M159.8,254.2c-18.6,0-33.7-15.1-33.7-33.7s15.1-33.7,33.7-33.7s33.7,15.1,33.7,33.7S178.4,254.2,159.8,254.2z
		 M159.8,194.8c-14.2,0-25.7,11.5-25.7,25.7s11.5,25.7,25.7,25.7s25.7-11.5,25.7-25.7S174,194.8,159.8,194.8z"/>
</g>
<g>
	<path class="st1" d="M298.1,174.1c-18.6,0-33.7-15.1-33.7-33.7s15.1-33.7,33.7-33.7s33.7,15.1,33.7,33.7S316.7,174.1,298.1,174.1z
		 M298.1,114.6c-14.2,0-25.7,11.5-25.7,25.7s11.5,25.7,25.7,25.7s25.7-11.5,25.7-25.7S312.2,114.6,298.1,114.6z"/>
</g>
<g>
	<path class="st1" d="M298.1,493.4c-18.6,0-33.7-15.1-33.7-33.7s15.1-33.7,33.7-33.7s33.7,15.1,33.7,33.7
		C331.8,478.2,316.7,493.4,298.1,493.4z M298.1,433.9c-14.2,0-25.7,11.5-25.7,25.7s11.5,25.7,25.7,25.7s25.7-11.5,25.7-25.7
		C323.8,445.4,312.2,433.9,298.1,433.9z"/>
</g>
<g>
	<g>
		<path class="st1" d="M317.1,269.9c-0.2,0.6-2.5,7.3-3.7,10.1h19.4c-6.9,18.7-16.8,35.9-29.5,50.9L299,336l-4.3-5.1
			c-12.7-15-22.6-32.2-29.5-50.9h18.5c-1.2-2.8-3.5-9.5-3.7-10.1h-30.7c10.2,27.5,24.7,52.7,43.3,74.8l6.4,7.5l6.4-7.5
			c18.6-22.1,33.1-47.2,43.3-74.8L317.1,269.9L317.1,269.9z"/>
	</g>
	<g>
		<path class="st1" d="M312,286.6c-3.4,8.4-7.7,16.2-13.2,23.2c-5.4-7-9.8-14.8-13.2-23.2h-10.2c4.8,12.9,11.6,24.8,20.4,35.2l3,3.6
			l3-3.6c8.8-10.4,15.6-22.2,20.4-35.2H312z"/>
	</g>
</g>
<path class="st1" d="M446.4,250c0.6,1.7,2.1,2.7,3.8,2.7c0.4,0,0.9-0.1,1.3-0.2c2.1-0.7,3.2-3,2.5-5.1l-1.4-4l-7.5,2.8L446.4,250z"
	/>
<path class="st1" d="M424.4,405.1c-2.6,3-5.2,6-8,8.9c-0.8,0.8-1.8,1.2-2.9,1.2c-1,0-2-0.4-2.8-1.1c-1.6-1.5-1.6-4.1-0.1-5.7
	c2.6-2.7,5.2-5.6,7.6-8.5L424.4,405.1z"/>
</svg>
