<?xml version="1.0" encoding="utf-8"?>
<!-- Generator: Adobe Illustrator 26.0.1, SVG Export Plug-In . SVG Version: 6.00 Build 0)  -->
<svg version="1.1" id="Layer_1" xmlns="http://www.w3.org/2000/svg" xmlns:xlink="http://www.w3.org/1999/xlink" x="0px" y="0px"
	 viewBox="0 0 180 180" style="enable-background:new 0 0 180 180;" xml:space="preserve">
<style type="text/css">
	.st0{fill:#5652CC;}
	.st1{fill:#362E94;}
	.st2{fill:#423EAF;}
	.st3{fill:#807DFB;}
	.st4{fill:#CED3F8;}
	.st5{fill:#6B67E9;}
	.st6{fill:#D1D7F3;}
	.st7{fill:#FFFFFF;}
	.st8{fill:#BBC0E6;}
</style>
<g>
	<path class="st0" d="M99.13,149.66l-58.09-33.54c-1.46-2.78-2.27-4.34-3.73-7.13V57.78c1.46-1.1,2.27-1.72,3.73-2.82L99.13,88.5
		c1.46,2.78,2.27,4.34,3.73,7.13v51.21C101.41,147.94,100.59,148.55,99.13,149.66z"/>
	<polygon class="st1" points="145.91,121.97 102.86,146.84 102.86,95.63 145.91,70.76 	"/>
	<polygon class="st2" points="145.91,70.76 102.86,95.63 99.13,88.5 142.18,63.63 	"/>
	<polygon class="st3" points="142.18,63.63 99.13,88.5 41.04,54.96 84.09,30.09 	"/>
	<polygon class="st4" points="96.19,141.57 46.51,112.89 46.51,66.54 96.19,95.23 	"/>
	<g>
		<polygon class="st0" points="47.53,112.3 47.53,69.87 93.82,96.59 93.82,139.02 		"/>
		<polygon class="st3" points="47.53,69.87 46.51,66.54 96.19,95.23 93.82,96.59 		"/>
		<polygon class="st2" points="93.82,96.59 96.19,95.23 96.19,141.57 93.82,139.02 		"/>
		<polygon class="st1" points="47.53,112.3 46.51,112.89 96.19,141.57 93.82,139.02 		"/>
		<polygon class="st5" points="46.51,112.89 47.53,112.3 47.53,69.87 46.51,66.54 		"/>
	</g>
	<g>
		<polygon class="st6" points="91.41,104.04 89.46,100.84 87.51,128.6 91.41,130.66 		"/>
		<g>
			<polygon class="st4" points="53.13,108.75 53.13,82.13 87.51,101.97 87.51,128.6 			"/>
			<polygon class="st7" points="53.13,82.13 55.08,81 89.46,100.84 87.51,101.97 			"/>
			<polygon class="st8" points="87.51,101.97 89.46,100.84 89.46,127.47 87.51,128.6 			"/>
		</g>
		<g>
			<path class="st0" d="M77.77,102.89l1.57,0.91c2.8,1.61,5.08,5.98,5.08,9.71l0,0c0,3.73-2.29,5.46-5.08,3.84l-1.57-0.91
				c-2.8-1.61-5.08-5.98-5.08-9.71l0,0C72.69,103,74.97,101.27,77.77,102.89z"/>
			<g>
				<path class="st2" d="M80.81,107.39c-0.65-0.86-1.42-1.6-2.25-2.08h0c-2.29-1.32-4.16-0.24-4.16,2.4c0,0.96,0.25,1.99,0.67,2.99
					L80.81,107.39z"/>
				<path class="st2" d="M76.3,112.84c0.65,0.86,1.42,1.6,2.25,2.08h0c2.29,1.32,4.16,0.24,4.16-2.4c0-0.96-0.25-1.99-0.67-2.99
					L76.3,112.84z"/>
			</g>
			<g>
				<path class="st1" d="M75.63,107c0-0.96,0.25-1.71,0.67-2.21c-1.14,0.2-1.91,1.24-1.91,2.93c0,0.96,0.25,1.99,0.67,2.99
					l1.24-0.71C75.88,109,75.63,107.96,75.63,107z"/>
				<path class="st1" d="M79.79,114.21L79.79,114.21c-0.83-0.48-1.6-1.21-2.25-2.08l4.51-2.6l0,0l-5.74,3.32
					c0.65,0.86,1.42,1.6,2.25,2.08l0,0c1.46,0.84,2.75,0.7,3.49-0.19C81.39,114.85,80.62,114.69,79.79,114.21z"/>
			</g>
		</g>
		<g>
			<polygon class="st1" points="67.51,98.92 57.7,93.26 57.7,88.9 67.51,94.56 			"/>
			<path class="st8" d="M59.73,98.77l-1.74-1c-0.16-0.09-0.3-0.35-0.3-0.56v-1.9c0-0.22,0.13-0.32,0.3-0.22l1.74,1
				c0.16,0.09,0.3,0.35,0.3,0.56v1.9C60.03,98.77,59.89,98.87,59.73,98.77z"/>
			<path class="st8" d="M63.47,100.93l-1.74-1c-0.16-0.09-0.3-0.35-0.3-0.56v-1.9c0-0.22,0.13-0.32,0.3-0.22l1.74,1
				c0.16,0.09,0.3,0.35,0.3,0.56v1.9C63.77,100.93,63.63,101.03,63.47,100.93z"/>
			<path class="st8" d="M67.21,103.09l-1.74-1c-0.16-0.09-0.3-0.35-0.3-0.56v-1.9c0-0.22,0.13-0.32,0.3-0.22l1.74,1
				c0.16,0.09,0.3,0.35,0.3,0.56v1.9C67.51,103.09,67.38,103.19,67.21,103.09z"/>
			<path class="st8" d="M59.73,103.04l-1.74-1c-0.16-0.09-0.3-0.35-0.3-0.56v-1.9c0-0.22,0.13-0.32,0.3-0.22l1.74,1
				c0.16,0.09,0.3,0.35,0.3,0.56v1.9C60.03,103.03,59.89,103.13,59.73,103.04z"/>
			<path class="st8" d="M63.47,105.2l-1.74-1c-0.16-0.09-0.3-0.35-0.3-0.56v-1.9c0-0.22,0.13-0.32,0.3-0.22l1.74,1
				c0.16,0.09,0.3,0.35,0.3,0.56v1.9C63.77,105.19,63.63,105.29,63.47,105.2z"/>
			<path class="st8" d="M67.21,107.36l-1.74-1c-0.16-0.09-0.3-0.35-0.3-0.56v-1.9c0-0.22,0.13-0.32,0.3-0.22l1.74,1
				c0.16,0.09,0.3,0.35,0.3,0.56v1.9C67.51,107.35,67.38,107.45,67.21,107.36z"/>
			<path class="st8" d="M59.73,107.3l-1.74-1c-0.16-0.09-0.3-0.35-0.3-0.56v-1.9c0-0.22,0.13-0.32,0.3-0.22l1.74,1
				c0.16,0.09,0.3,0.35,0.3,0.56v1.9C60.03,107.29,59.89,107.39,59.73,107.3z"/>
			<path class="st8" d="M63.47,109.46l-1.74-1c-0.16-0.09-0.3-0.35-0.3-0.56v-1.9c0-0.22,0.13-0.32,0.3-0.22l1.74,1
				c0.16,0.09,0.3,0.35,0.3,0.56v1.9C63.77,109.45,63.63,109.55,63.47,109.46z"/>
			<path class="st8" d="M67.21,111.62l-1.74-1c-0.16-0.09-0.3-0.35-0.3-0.56v-1.9c0-0.22,0.13-0.32,0.3-0.22l1.74,1
				c0.16,0.09,0.3,0.35,0.3,0.56v1.9C67.51,111.61,67.38,111.71,67.21,111.62z"/>
		</g>
	</g>
	<polygon class="st6" points="52.45,78.86 52.07,78.24 51.38,83.21 52.45,83.76 	"/>
	<g>
		<polygon class="st5" points="40.11,72.12 51.38,78.63 51.38,83.21 40.11,76.7 		"/>
		<polygon class="st1" points="51.38,78.63 52.07,78.24 52.07,82.81 51.38,83.21 		"/>
		<polygon class="st3" points="40.11,72.12 41.84,71.12 46.51,73.82 47.53,75.62 52.07,78.24 51.38,78.63 		"/>
	</g>
	<polygon class="st6" points="52.45,106.37 52.07,105.74 51.38,110.71 52.45,111.26 	"/>
	<g>
		<polygon class="st5" points="40.11,99.63 51.38,106.14 51.38,110.71 40.11,104.2 		"/>
		<polygon class="st1" points="51.38,106.14 52.07,105.74 52.07,110.32 51.38,110.71 		"/>
		<polygon class="st3" points="40.11,99.63 41.84,98.63 46.51,101.32 47.53,103.12 52.07,105.74 51.38,106.14 		"/>
	</g>
</g>
</svg>
