<?xml version="1.0" encoding="utf-8"?>
<!-- Generator: Adobe Illustrator 26.0.1, SVG Export Plug-In . SVG Version: 6.00 Build 0)  -->
<svg version="1.1" id="Layer_1" xmlns="http://www.w3.org/2000/svg" xmlns:xlink="http://www.w3.org/1999/xlink" x="0px" y="0px"
	 viewBox="0 0 180 180" style="enable-background:new 0 0 180 180;" xml:space="preserve">
<style type="text/css">
	.st0{fill:#BABDDF;}
	.st1{fill:#A9B0D9;}
	.st2{fill:#A2A7CE;}
	.st3{fill:#CFD0E9;}
	.st4{fill:url(#SVGID_1_);}
	.st5{fill:url(#SVGID_00000060735593688777538730000003474891026217239686_);}
	.st6{fill:#F0603A;}
	.st7{fill:#FFFFFF;}
</style>
<g>
	<g>
		<g>
			<path class="st0" d="M91.47,49.69c-4.1,7.1-8.07,13.22-13.77,16.51c-5.36,3.1-9.38,1.93-13.77-0.61l0,35.05
				c0,20.09,17.26,28.41,27.54,26.53c10.28-9.99,27.54-38.25,27.54-58.33l0-35.05c-4.1,7.1-8.07,13.22-13.77,16.51
				C99.88,53.4,95.86,52.23,91.47,49.69z"/>
			<path class="st1" d="M80.78,116.13c3.56,2.17,7.45,3.24,10.69,3.19l-1.13-0.66C87.43,118.71,84.02,117.87,80.78,116.13z"/>
			<path class="st2" d="M111.59,52.69l0,19.12c0,15.08-12.82,37.23-21.25,46.85c0,0,0,0,0,0l1.13,0.66c0,0,0,0,0,0
				c8.43-9.62,21.25-31.77,21.25-46.85l0-20.89C112.35,51.96,111.97,52.32,111.59,52.69z"/>
			<path class="st3" d="M57.12,96.71c0,11.34,5.5,18.92,12.13,23.05l0,0l0.11,0.06c0.39,0.24,0.79,0.47,1.19,0.69l5.51,3.18l0,0
				c-6.64-4.12-12.14-11.71-12.14-23.05l0-35.05l-6.81-3.93L57.12,96.71z"/>
			<linearGradient id="SVGID_1_" gradientUnits="userSpaceOnUse" x1="94.9464" y1="51.7007" x2="108.7168" y2="27.8496">
				<stop  offset="0" style="stop-color:#F5F5FA"/>
				<stop  offset="1" style="stop-color:#CFD0E9"/>
			</linearGradient>
			<path class="st4" d="M112.2,29.86c-4.1,7.1-8.07,13.22-13.77,16.51c-5.36,3.09-9.37,1.93-13.77-0.61l0,0l6.81,3.93
				c4.4,2.54,8.41,3.71,13.77,0.61c5.7-3.29,9.67-9.41,13.77-16.51L112.2,29.86z"/>
			
				<linearGradient id="SVGID_00000055674519581175872310000012727842836289028023_" gradientUnits="userSpaceOnUse" x1="67.4067" y1="67.5993" x2="81.1759" y2="43.7503">
				<stop  offset="0" style="stop-color:#F5F5FA"/>
				<stop  offset="1" style="stop-color:#CFD0E9"/>
			</linearGradient>
			<path style="fill:url(#SVGID_00000055674519581175872310000012727842836289028023_);" d="M70.89,62.27
				c-5.36,3.1-9.38,1.93-13.77-0.61l0,0l6.81,3.93c4.39,2.54,8.41,3.71,13.77,0.61c5.7-3.29,9.67-9.41,13.77-16.51l-6.81-3.93
				C80.56,52.86,76.59,58.98,70.89,62.27z"/>
			<path class="st6" d="M77.7,73.46c-2.76,1.59-5.23,2.39-7.49,2.63l0,20.92c0,9.29,4.86,15.64,10.57,19.12
				c3.24,1.73,6.65,2.58,9.55,2.54c0,0,0,0,0,0V61.15C86.92,65.99,82.86,70.48,77.7,73.46z"/>
			<path class="st6" d="M105.23,57.56c-5.56,3.21-9.95,3.18-13.75,1.92c-0.01,0.01-0.01,0.02-0.02,0.03
				c-0.37,0.55-0.75,1.1-1.13,1.64v57.52c8.43-9.62,21.25-31.77,21.25-46.85l0-19.12C109.66,54.55,107.56,56.21,105.23,57.56z"/>
		</g>
	</g>
	<g id="XMLID_00000050625917740369713880000001178749440787168399_">
		<path class="st7" d="M83.13,85.69c1.69,4.28,4.12,7.7,7.22,10.12l1.06,0.83l1.06-2.05c3.1-6.01,5.52-12.22,7.22-18.46l-3.08,1.78
			c0,0.01-0.01,0.02-0.01,0.03l-0.52,0.3c-1.19,4.08-2.74,8.14-4.66,12.1c-1.92-1.75-3.47-4.02-4.66-6.72l-0.52,0.3
			c0-0.01-0.01-0.01-0.01-0.02L83.13,85.69z"/>
		<path class="st7" d="M97.86,70.45c-0.08,0.28-0.89,3.49-1.32,4.86l6.87-3.97c-2.45,9.01-5.95,17.98-10.43,26.66l-1.53,2.96
			l-1.53-1.2c-4.48-3.5-7.98-8.44-10.43-14.62l6.54-3.77c-0.44-0.86-1.24-3.14-1.32-3.33l-10.87,6.28
			c3.6,9.09,8.73,16.33,15.32,21.48l2.25,1.76l2.25-4.35c6.58-12.76,11.72-25.93,15.32-39.17L97.86,70.45z"/>
	</g>
</g>
</svg>
