<?xml version="1.0" encoding="utf-8"?>
<!-- Generator: Adobe Illustrator 26.0.1, SVG Export Plug-In . SVG Version: 6.00 Build 0)  -->
<svg version="1.1" id="Layer_1" xmlns="http://www.w3.org/2000/svg" xmlns:xlink="http://www.w3.org/1999/xlink" x="0px" y="0px"
	 viewBox="0 0 180 180" style="enable-background:new 0 0 180 180;" xml:space="preserve">
<style type="text/css">
	.st0{fill:#F5F5FA;}
	.st1{fill:url(#SVGID_1_);}
	.st2{fill:#0078D4;}
</style>
<g>
	<g>
		<path class="st0" d="M116.59,40.49c0.98-0.57,1.78-0.11,1.79,1.02l0.16,56.22c0,1.12-0.8,2.51-1.78,3.08l-48.93,28.25
			c-0.98,0.57-1.78,0.11-1.79-1.02l-0.16-56.22c0-1.13,0.8-2.51,1.78-3.08L116.59,40.49z"/>
	</g>
	<g>
		<linearGradient id="SVGID_1_" gradientUnits="userSpaceOnUse" x1="56.6744" y1="82.0381" x2="117.8585" y2="82.0381">
			<stop  offset="0" style="stop-color:#024078"/>
			<stop  offset="0.0653" style="stop-color:#015092"/>
			<stop  offset="0.1955" style="stop-color:#006DC2"/>
			<stop  offset="0.2605" style="stop-color:#0078D4"/>
		</linearGradient>
		<path class="st1" d="M65.93,71.35c0.02-0.13,0.05-0.26,0.09-0.39c0-0.01,0.01-0.02,0.01-0.04c0.04-0.14,0.1-0.28,0.16-0.42
			c0,0,0-0.01,0-0.01c0.06-0.14,0.13-0.28,0.21-0.42c0,0,0-0.01,0.01-0.01c0.08-0.13,0.16-0.26,0.25-0.38
			c0.01-0.01,0.02-0.02,0.02-0.03c0.08-0.11,0.17-0.21,0.26-0.31c0.02-0.02,0.04-0.04,0.06-0.06c0.07-0.08,0.15-0.14,0.22-0.21
			c0.03-0.03,0.07-0.06,0.1-0.09c0.11-0.09,0.22-0.17,0.33-0.23l48.93-28.25c0.11-0.06,0.22-0.11,0.33-0.15
			c0.02-0.01,0.04-0.01,0.06-0.02c0.1-0.03,0.2-0.05,0.29-0.06c0.01,0,0.02,0,0.03,0c0.1-0.01,0.2,0,0.29,0.02c0.01,0,0.01,0,0.02,0
			c0.09,0.02,0.18,0.05,0.26,0.1l-9.21-5.35c0,0-0.01,0-0.01-0.01c-0.03-0.02-0.06-0.03-0.09-0.04c-0.03-0.01-0.06-0.02-0.09-0.03
			c-0.02-0.01-0.04-0.01-0.06-0.01c-0.01,0-0.01,0-0.02,0c-0.01,0-0.02,0-0.02-0.01c-0.04-0.01-0.07-0.01-0.11-0.01
			c-0.04,0-0.08,0-0.12,0c-0.01,0-0.02,0-0.04,0c-0.01,0-0.02,0-0.03,0c-0.02,0-0.05,0-0.07,0.01c-0.05,0.01-0.1,0.02-0.16,0.03
			c-0.02,0.01-0.04,0.02-0.07,0.02c-0.02,0.01-0.04,0.01-0.06,0.02c-0.03,0.01-0.05,0.02-0.08,0.03c-0.08,0.03-0.16,0.07-0.25,0.12
			L58.45,63.39c-0.11,0.07-0.22,0.14-0.33,0.23c-0.03,0.03-0.07,0.06-0.1,0.09c-0.05,0.05-0.1,0.09-0.15,0.14
			c-0.02,0.02-0.05,0.05-0.07,0.07c-0.02,0.02-0.04,0.04-0.06,0.06c-0.02,0.02-0.04,0.05-0.07,0.07c-0.05,0.06-0.1,0.12-0.15,0.18
			c-0.02,0.02-0.03,0.05-0.05,0.07c-0.01,0.01-0.02,0.02-0.03,0.03c-0.01,0.02-0.03,0.04-0.04,0.06c-0.04,0.05-0.07,0.1-0.1,0.15
			c-0.03,0.05-0.06,0.1-0.09,0.15c0,0-0.01,0.01-0.01,0.01c0,0,0,0.01-0.01,0.01c-0.02,0.04-0.05,0.08-0.07,0.12
			c-0.03,0.05-0.05,0.1-0.08,0.15c-0.02,0.05-0.04,0.09-0.06,0.14c0,0,0,0.01,0,0.01c0,0,0,0.01,0,0.01
			c-0.02,0.05-0.05,0.11-0.07,0.16c-0.02,0.06-0.04,0.11-0.06,0.17c-0.01,0.03-0.02,0.05-0.03,0.08c0,0.01-0.01,0.02-0.01,0.04
			c-0.01,0.02-0.01,0.04-0.02,0.06c-0.02,0.07-0.04,0.14-0.05,0.2c-0.01,0.04-0.01,0.08-0.02,0.12c0,0.02-0.01,0.04-0.01,0.06
			c0,0.02-0.01,0.04-0.01,0.06c-0.02,0.12-0.02,0.23-0.02,0.35l0.16,56.22c0,0.56,0.2,0.95,0.52,1.14l9.21,5.35
			c-0.32-0.19-0.52-0.58-0.52-1.14l-0.16-56.22c0-0.13,0.01-0.27,0.03-0.41C65.92,71.39,65.93,71.37,65.93,71.35z"/>
		<polygon class="st2" points="77.8,93.13 93.1,84.3 93.1,66.74 77.8,75.57 		"/>
		<polygon class="st2" points="94.78,65.77 94.78,83.33 110.08,74.49 110.08,56.93 		"/>
		<polygon class="st2" points="77.8,112.62 93.1,103.78 93.1,86.22 77.8,95.06 		"/>
		<polygon class="st2" points="94.78,102.81 110.08,93.98 110.08,76.42 94.78,85.25 		"/>
	</g>
</g>
</svg>
