<?xml version="1.0" encoding="utf-8"?>
<!-- Generator: Adobe Illustrator 26.0.1, SVG Export Plug-In . SVG Version: 6.00 Build 0)  -->
<svg version="1.1" id="Layer_1" xmlns="http://www.w3.org/2000/svg" xmlns:xlink="http://www.w3.org/1999/xlink" x="0px" y="0px"
	 viewBox="0 0 180 180" style="enable-background:new 0 0 180 180;" xml:space="preserve">
<style type="text/css">
	.st0{fill:#BBC0E6;}
	.st1{fill:#F6F6FB;}
	.st2{fill:#E8ECF7;}
	.st3{fill:url(#SVGID_1_);}
	.st4{fill:url(#SVGID_00000170959717091286162010000001827035455487866809_);}
	.st5{fill:url(#SVGID_00000139995138847913875940000006086748626516386239_);}
	.st6{fill:url(#SVGID_00000108274299796328842470000002750668313285005965_);}
	.st7{fill:url(#SVGID_00000129903058076211550530000010368822682297171588_);}
	.st8{fill:url(#SVGID_00000083057926051613576440000011460824015875743134_);}
	.st9{fill:url(#SVGID_00000003063228606610110350000008836218695110171822_);}
	.st10{fill:url(#SVGID_00000114771793558612296260000013404217700300360833_);}
	.st11{fill:url(#SVGID_00000127045122813474254410000000812194393919572615_);}
	.st12{fill:#423EAF;}
	.st13{fill:#6B67E9;}
	.st14{fill:#5652CC;}
	.st15{fill:url(#SVGID_00000028290548013688691210000007754399688556745638_);}
</style>
<g>
	<g>
		<path class="st0" d="M55.16,61.75v23.71c0,15.05,10.57,33.35,23.6,40.88c13.03,7.53,23.6,1.43,23.6-13.62V89L55.16,61.75z"/>
		<path class="st1" d="M94.14,93.74c-1.17-2.02-1.17-4.2,0-4.88c1.17-0.67,3.05,0.42,4.22,2.44c1.17,2.02,1.17,4.2,0,4.87
			C97.2,96.85,95.31,95.76,94.14,93.74z"/>
		
			<rect x="94.18" y="91.85" transform="matrix(0.8661 -0.4998 0.4998 0.8661 -33.3619 60.4982)" class="st0" width="4.15" height="1.36"/>
		<path class="st1" d="M63.37,71.11c-1.17-2.02-3.05-3.11-4.22-2.44c-1.17,0.67-1.17,2.86,0,4.88c1.17,2.02,3.06,3.11,4.22,2.44
			C64.54,75.31,64.54,73.13,63.37,71.11z"/>
		
			<rect x="59.19" y="71.64" transform="matrix(0.8661 -0.4998 0.4998 0.8661 -27.9481 40.3019)" class="st0" width="4.15" height="1.36"/>
		<polygon class="st2" points="70.22,53.05 117.42,80.3 102.36,89 55.16,61.75 		"/>
		
			<linearGradient id="SVGID_1_" gradientUnits="userSpaceOnUse" x1="844.5994" y1="91.0002" x2="859.7527" y2="117.2465" gradientTransform="matrix(1 0 0 1 -745.707 0)">
			<stop  offset="0.6742" style="stop-color:#CED3F8"/>
			<stop  offset="0.7259" style="stop-color:#C5CAF0"/>
			<stop  offset="0.8964" style="stop-color:#ACB2D9"/>
			<stop  offset="1" style="stop-color:#A3A9D0"/>
		</linearGradient>
		<path class="st3" d="M102.36,89v23.71c0,7.48-2.61,12.75-6.84,15.23l14.66-8.47l-0.01,0c4.47-2.38,7.25-7.73,7.25-15.46V80.3
			L102.36,89z"/>
	</g>
	<g>
		
			<linearGradient id="SVGID_00000029746521908718706260000001024642705657931945_" gradientUnits="userSpaceOnUse" x1="823.2049" y1="109.6449" x2="825.7205" y2="109.6449" gradientTransform="matrix(1 0 0 1 -745.707 0)">
			<stop  offset="0" style="stop-color:#423EAF"/>
			<stop  offset="0.3668" style="stop-color:#322D92"/>
			<stop  offset="0.7605" style="stop-color:#251E79"/>
			<stop  offset="1" style="stop-color:#201970"/>
		</linearGradient>
		<polygon style="fill:url(#SVGID_00000029746521908718706260000001024642705657931945_);" points="77.5,111.98 80.01,110.53 
			80.01,107.31 77.5,108.76 		"/>
		
			<linearGradient id="SVGID_00000023265336572895676470000005768493866206305671_" gradientUnits="userSpaceOnUse" x1="823.2049" y1="111.9848" x2="825.7205" y2="111.9848" gradientTransform="matrix(1 0 0 1 -745.707 0)">
			<stop  offset="0" style="stop-color:#5652CC"/>
			<stop  offset="0.1444" style="stop-color:#4C47BB"/>
			<stop  offset="0.5209" style="stop-color:#342E92"/>
			<stop  offset="0.8192" style="stop-color:#251F79"/>
			<stop  offset="1" style="stop-color:#201970"/>
		</linearGradient>
		<polygon style="fill:url(#SVGID_00000023265336572895676470000005768493866206305671_);" points="78.76,112.71 80.01,113.44 
			80.01,110.53 77.5,111.98 		"/>
		
			<linearGradient id="SVGID_00000138568438372655978860000015172177717992657583_" gradientUnits="userSpaceOnUse" x1="820.578" y1="92.8208" x2="828.1248" y2="92.8208" gradientTransform="matrix(1 0 0 1 -745.707 0)">
			<stop  offset="0" style="stop-color:#6B67E9"/>
			<stop  offset="0.3021" style="stop-color:#4E49BB"/>
			<stop  offset="0.6091" style="stop-color:#352F92"/>
			<stop  offset="0.8525" style="stop-color:#261F79"/>
			<stop  offset="1" style="stop-color:#201970"/>
		</linearGradient>
		<path style="fill:url(#SVGID_00000138568438372655978860000015172177717992657583_);" d="M78.76,89.09
			c-2.15-1.24-3.88-0.23-3.88,2.24c0,1.97,1.1,4.27,2.63,5.76l4.92-2.84C81.9,92.18,80.46,90.07,78.76,89.09z"/>
		
			<linearGradient id="SVGID_00000002386036794087634570000016003786489263394701_" gradientUnits="userSpaceOnUse" x1="825.7205" y1="97.8643" x2="828.1356" y2="97.8643" gradientTransform="matrix(1 0 0 1 -745.707 0)">
			<stop  offset="0" style="stop-color:#5652CC"/>
			<stop  offset="0.1444" style="stop-color:#4C47BB"/>
			<stop  offset="0.5209" style="stop-color:#342E92"/>
			<stop  offset="0.8192" style="stop-color:#251F79"/>
			<stop  offset="1" style="stop-color:#201970"/>
		</linearGradient>
		<path style="fill:url(#SVGID_00000002386036794087634570000016003786489263394701_);" d="M82.43,97.14l-2.42,1.39
			C81.15,98.74,82.04,98.23,82.43,97.14z"/>
		
			<linearGradient id="SVGID_00000059289561423529521910000014709973157276488333_" gradientUnits="userSpaceOnUse" x1="823.2049" y1="100.183" x2="828.3485" y2="100.183" gradientTransform="matrix(1 0 0 1 -745.707 0)">
			<stop  offset="0" style="stop-color:#423EAF"/>
			<stop  offset="0.3668" style="stop-color:#322D92"/>
			<stop  offset="0.7605" style="stop-color:#251E79"/>
			<stop  offset="1" style="stop-color:#201970"/>
		</linearGradient>
		<path style="fill:url(#SVGID_00000059289561423529521910000014709973157276488333_);" d="M80.01,98.54l2.42-1.39
			c0.14-0.38,0.21-0.82,0.21-1.33c0-0.51-0.09-1.04-0.22-1.57l-4.92,2.84v9.03l2.52-1.45V98.54z"/>
		
			<linearGradient id="SVGID_00000072999502886540319190000004290627810107446403_" gradientUnits="userSpaceOnUse" x1="822.0623" y1="106.7124" x2="825.7205" y2="106.7124" gradientTransform="matrix(1 0 0 1 -745.707 0)">
			<stop  offset="0" style="stop-color:#423EAF"/>
			<stop  offset="0.3668" style="stop-color:#322D92"/>
			<stop  offset="0.7605" style="stop-color:#251E79"/>
			<stop  offset="1" style="stop-color:#201970"/>
		</linearGradient>
		<path style="fill:url(#SVGID_00000072999502886540319190000004290627810107446403_);" d="M77.5,106.12
			c-0.63-0.37-1.14-0.07-1.14,0.66c0,0.73,0.51,1.61,1.14,1.98l2.52-1.45v-2.64L77.5,106.12z"/>
	</g>
	
		<linearGradient id="SVGID_00000110429032855216473370000004411711674207322299_" gradientUnits="userSpaceOnUse" x1="102.1381" y1="80.3625" x2="117.3772" y2="80.3625">
		<stop  offset="0" style="stop-color:#C4CAE9"/>
		<stop  offset="0.2414" style="stop-color:#D5DAF0"/>
		<stop  offset="0.7263" style="stop-color:#F4F5FB"/>
		<stop  offset="1" style="stop-color:#FFFFFF"/>
	</linearGradient>
	<polygon style="fill:url(#SVGID_00000110429032855216473370000004411711674207322299_);" points="102.14,82.4 113.85,82.4 
		117.38,80.36 113.85,78.33 102.14,78.33 	"/>
	
		<linearGradient id="SVGID_00000098915166700406626200000003156156330880648599_" gradientUnits="userSpaceOnUse" x1="70.5648" y1="62.2722" x2="89.291" y2="62.2722">
		<stop  offset="0" style="stop-color:#C4CAE9"/>
		<stop  offset="0.2414" style="stop-color:#D5DAF0"/>
		<stop  offset="0.7263" style="stop-color:#F4F5FB"/>
		<stop  offset="1" style="stop-color:#FFFFFF"/>
	</linearGradient>
	<polygon style="fill:url(#SVGID_00000098915166700406626200000003156156330880648599_);" points="70.56,64.31 89.29,64.31 
		85.8,62.27 82.28,60.24 70.56,60.24 	"/>
	<g>
		<path class="st12" d="M84.23,36.93c-9.84-5.68-17.81-1.07-17.81,10.29v14.71l4.12,2.38V49.59c0-8.72,6.14-12.27,13.7-7.91
			c7.55,4.36,13.7,15,13.7,23.73v14.71l4.12,2.38V67.79C102.04,56.43,94.07,42.61,84.23,36.93z"/>
		<path class="st13" d="M71.57,35.73L71.57,35.73c0.01-0.01,0.02-0.01,0.03-0.02L71.57,35.73z"/>
		<path class="st14" d="M70.53,49.59v14.71l4.12-2.38V47.22c0-3.15,0.81-5.62,2.19-7.29C73.05,40.56,70.53,44.02,70.53,49.59z"/>
		
			<linearGradient id="SVGID_00000024709126650610376070000003510554878838044834_" gradientUnits="userSpaceOnUse" x1="825.7154" y1="30.8492" x2="853.5895" y2="79.1287" gradientTransform="matrix(1 0 0 1 -745.707 0)">
			<stop  offset="0.0936" style="stop-color:#807DFB"/>
			<stop  offset="0.4628" style="stop-color:#6F6BE8"/>
			<stop  offset="0.8915" style="stop-color:#5652CC"/>
		</linearGradient>
		<path style="fill:url(#SVGID_00000024709126650610376070000003510554878838044834_);" d="M88.35,34.56
			c-4.9-2.83-9.34-3.11-12.56-1.27v0l-0.03,0.02c-0.01,0-0.01,0.01-0.02,0.01l-4.07,2.35c3.22-1.84,7.66-1.56,12.56,1.27
			c9.84,5.68,17.82,19.49,17.82,30.86V82.5l4.12-2.38V65.41C106.16,54.05,98.19,40.24,88.35,34.56z"/>
	</g>
</g>
</svg>
