<svg xmlns="http://www.w3.org/2000/svg" width="32" height="32" viewBox="0 0 32 32"><path fill="#1974BB" d="M29.9465734,17.125691 C29.4667865,11.6384858 25.6284911,7.94881331 22.6538122,3.97531986 C23.9012582,2.1777871 26.6840224,2.74542903 28.6991274,3.12385697 C26.1082781,1.32632422 23.0376418,0.285647365 19.7750907,0.00182640367 C13.5378607,-0.0927805833 8.54807669,3.50228492 3.94212223,7.47577838 C1.15935808,6.62431549 3.07850577,3.6914989 3.07850577,1.61014518 C0.679571159,4.82678274 -0.0880879172,8.42184825 0.00786946736,12.1115207 C0.103826852,15.4227653 1.54318762,18.6394028 3.46233531,21.5722194 L7.49254546,26.1133548 C6.14914208,28.2893155 3.46233531,27.3432456 1.44723024,26.9648177 C4.70978131,29.3299924 8.35616192,30.0868483 12.0984999,29.9922413 C15.4570084,29.8976343 18.7195595,28.4785295 21.598281,26.5863897 L26.2042354,22.6128963 C27.5476388,24.1266081 27.835511,26.6809967 27.0678519,28.5731365 C29.3708291,25.3564989 30.2344456,21.3830055 29.9465734,17.125691 Z M25.5325338,17.314905 C24.3810451,18.7340098 22.9416844,20.4369356 22.9416844,20.4369356 C21.5023236,22.0452544 20.2548776,22.8021103 19.6791333,23.2751452 C17.7599856,24.69425 15.361051,25.5457129 12.9621164,25.6403199 L12.3863721,25.6403199 L9.60360792,22.8967173 C8.73999146,21.8560404 7.97233238,21.3830055 6.82084377,19.7746867 C5.381483,17.78794 4.51786654,15.5173723 4.42190916,13.1521976 L4.42190916,12.3953417 L4.42190916,12.3007347 L7.10871592,9.93556004 C10.2753096,7.19195741 13.7297755,4.73217575 18.0478578,4.73217575 L18.2397725,4.73217575 L20.350835,7.47577838 C22.3659401,10.219381 25.0527468,12.8683766 25.4365764,16.6526561 C25.4365764,16.6526561 25.5325338,17.220298 25.5325338,17.314905 Z" transform="translate(1 1)"/></svg>