<svg xmlns="http://www.w3.org/2000/svg" width="32" height="32" viewBox="0 0 32 32"><defs><linearGradient id="a" x1="50.131%" x2="50.131%" y1="-.098%" y2="99.49%"><stop offset="20%" stop-color="#C6168D"/><stop offset="80%" stop-color="#762B8A"/></linearGradient></defs><g fill="none" transform="translate(3 1.5)"><path fill="#762B8A" d="M13,30 L0,22.7578362 L0,7.2421638 L13,0 L26,7.2421638 L26,22.7578362 L13,30 Z M23.9473684,21.4883721 L23.9473684,8.48028311 L13,2.5 L2.05263158,8.48028311 L2.05263158,21.4883721 L13,27.5 L23.9473684,21.4883721 Z"/><polygon fill="url(#a)" points="4 20.5 13 25.5 22 20.5 22 18.07 15.095 22.137 15.095 19.947 22 15.88 22 13.768 15.095 17.757 15.095 15.645 22 11.578 22 9.5 13 4.5 4 9.5"/></g></svg>