<svg xmlns="http://www.w3.org/2000/svg" width="32" height="32" viewBox="0 0 32 32"><defs><radialGradient id="a" cx="50%" cy="50%" r="50%" fx="50%" fy="50%"><stop offset="0%" stop-color="#00A0DF"/><stop offset="60.672%" stop-color="#008FD3"/><stop offset="100%" stop-color="#005BA6"/></radialGradient></defs><g fill="none" transform="translate(1 1)"><path fill="url(#a)" d="M30,15 C30,23.282967 23.2861657,30 15.0020607,30 C6.71383432,30 0,23.282967 0,15 C0,6.71703297 6.71795576,0 15.0020607,0 C23.2861657,0 30,6.71291209 30,15"/><path fill="#040000" d="M23,15 C23,19.414673 19.4189261,23 15,23 C10.5810739,23 7,19.4189261 7,15 C7,10.5810739 10.5810739,7 15,7 C19.4189261,7 23,10.5810739 23,15"/><path fill="#FFF" d="M13,8 C13,9.65779927 11.6549849,11 9.99818731,11 C8.34138973,11 7,9.65779927 7,8 C7,6.34220073 8.34138973,5 9.99818731,5 C11.6549849,5 13,6.34220073 13,8"/></g></svg>