<svg xmlns="http://www.w3.org/2000/svg" width="32" height="32" viewBox="0 0 32 32"><g fill="none" transform="translate(2)"><path fill="#F9A11D" d="M12.9995354,9 L9.27200474,9 L9.27200474,6.95283139 C9.27200474,5.31777676 8.02810225,3.98771143 6.49953684,3.98771143 C4.97097004,3.98771143 3.72753256,5.31827219 3.72753256,6.95283139 L3.72753256,9 L0,9 L0,6.95283139 C0,3.11935133 2.9157266,0 6.5,0 C10.0842734,0 13,3.1188559 13,6.95283139 L13,9 L12.999535,9 L12.9995354,9 Z" transform="translate(8 8)"/><path fill="#2C3C69" d="M22.7233295,17 L6.27667049,17 C5.57450124,17 5,17.5854354 5,18.3009708 L5,30.6990292 C5,31.4145626 5.57450124,32 6.27667049,32 L22.7233295,32 C23.4254997,32 24,31.4145626 24,30.6990292 L24,18.3009708 C24,17.5854354 23.4254997,17 22.7233295,17 Z M15.3334095,25.1402915 L15.3334095,26.8203861 C15.3334095,27.2893196 14.9599358,27.6694157 14.5002387,27.6694157 C14.0405415,27.6694157 13.6670678,27.2888346 13.6670678,26.8203861 L13.6670678,25.1407769 C13.1544941,24.844175 12.8081729,24.2844663 12.8081729,23.640777 C12.8081729,22.6883488 13.5660769,21.9165042 14.5002387,21.9165042 C15.4348748,21.9165042 16.1923025,22.6888343 16.1923025,23.640777 C16.1923025,24.2839813 15.8459813,24.84369 15.3334091,25.140292 L15.3334095,25.1402915 Z"/><path fill="#F9A11D" d="M6.93389354,9 C6.69614462,9 6.45621939,8.91174841 6.25809565,8.72991334 L3.38856727,6.10227589 C2.93440627,5.68623628 2.86865575,4.93901635 3.24269551,4.43278704 C3.61630027,3.92704359 4.28730835,3.85382419 4.74190478,4.26986282 L7.61143317,6.89750125 C8.06559329,7.31353988 8.13134468,8.06076078 7.75730405,8.56698912 C7.54698809,8.85259189 7.2417469,9 6.93389354,9 L6.93389354,9 Z"/><path fill="#F9A11D" d="M1.06600298,5 C0.758126383,5 0.453299807,4.85259189 0.242532663,4.56698912 C-0.131100098,4.06124568 -0.0657789667,3.31353988 0.388414143,2.89750125 L3.25815093,0.269862822 C3.71278125,-0.146175812 4.38383806,-0.0729564065 4.75746734,0.432787042 C5.1311001,0.93853049 5.06577897,1.68623628 4.61158586,2.10227589 L1.74185081,4.72991334 C1.54371182,4.91174841 1.30420463,5 1.06600298,5 L1.06600298,5 Z" transform="translate(21 4)"/><path fill="#F9A11D" d="M4.89011608 15 1.10988438 15C.496861113 15 0 14.5523314 0 14 0 13.4476686.496861113 13 1.10988438 13L4.89011608 13C5.50313889 13 6 13.4476703 6 14 6 14.5523297 5.50268422 15 4.89011608 15ZM15 6C14.4476699 6 14 5.50560569 14 4.89562751L14 1.10437204C14 .49439386 14.4476699 0 15 0 15.5523317 0 16 .49439386 16 1.10437204L16 4.89562751C16 5.50560569 15.5523301 6 15 6ZM27.8967079 15 24.1032921 15C23.4939093 15 23 14.5523314 23 14 23 13.4476686 23.4939093 13 24.1032921 13L27.8967079 13C28.5060889 13 29 13.4476703 29 14 29 14.5523297 28.5060889 15 27.8967079 15L27.8967079 15Z"/></g></svg>