<?xml version="1.0" encoding="utf-8"?>
<!-- Generator: Adobe Illustrator 25.4.2, SVG Export Plug-In . SVG Version: 6.00 Build 0)  -->
<svg version="1.1" id="Layer_1" xmlns="http://www.w3.org/2000/svg" xmlns:xlink="http://www.w3.org/1999/xlink" x="0px" y="0px"
	 viewBox="0 0 96 96" style="enable-background:new 0 0 96 96;" xml:space="preserve">
<style type="text/css">
	.st0{fill:none;}
	.st1{fill:none;stroke:#3D3E62;stroke-width:8;stroke-linecap:round;stroke-linejoin:round;stroke-miterlimit:10;}
</style>
<g>
	<g>
		<rect class="st0" width="96" height="96"/>
	</g>
	<path class="st1" d="M24.3,39c0.5,0,1.1,0,1.6,0.1c-0.3-1.1-0.4-2.2-0.4-3.3c0-7.3,5.9-13.2,13.2-13.2c6.6,0,12.1,4.9,13,11.2
		c1.9-1.5,4.3-2.4,6.9-2.4c6.1,0,11,4.9,11,11c0,0.1,0,0.2,0,0.3c1.2-0.4,2.4-0.7,3.7-0.7C79.2,42,84,48.9,84,54.9
		s-4.8,10.7-10.7,10.7h-49c-6.7,0-12.2-5.5-12.2-12.2C12,46.6,17.5,39,24.3,39z"/>
</g>
</svg>
