<?xml version="1.0" encoding="utf-8"?>
<!-- Generator: Adobe Illustrator 26.2.1, SVG Export Plug-In . SVG Version: 6.00 Build 0)  -->
<svg version="1.1" id="Ecosystem_00000044888267717553072680000007385162658042438573_"
	 xmlns="http://www.w3.org/2000/svg" xmlns:xlink="http://www.w3.org/1999/xlink" x="0px" y="0px" viewBox="0 0 1616.8 600"
	 style="enable-background:new 0 0 1616.8 600;" xml:space="preserve">
<style type="text/css">
	.st0{fill:#FF6333;}
	.st1{fill:#3D3E62;}
	.st2{fill:#FFFFFF;}
	.st3{fill:#1F1F23;}
	.st4{fill:none;}
</style>
<path class="st0" d="M389.5,231.3c-9.7,0-27-4.9-45.2-12.8c-19.4-8.4-31.2-16.4-33.9-20.2c-0.7-1.1-2-1.7-3.3-1.7s-2.5,0.6-3.3,1.7
	c-7.2,10.2-58.9,33-79.2,33c-2.2,0-4,1.8-4,4v82.4c0,17.6,13.8,37.2,41,58.4c19.8,15.4,41.2,27,44.3,27.8c0.3,0.1,0.7,0.1,1,0.1
	c0.3,0,0.7,0,1-0.1c3.3-0.9,24.6-13.1,44.3-28.4c27.2-21,41-39,41-53.5v-86.7C393.5,233.1,391.7,231.3,389.5,231.3z"/>
<path class="st1" d="M272.6,459.8c-0.3,0-0.6,0-0.9-0.1c-3.9-0.9-7.8-1.9-11.6-3.1c-2.1-0.6-3.3-2.9-2.7-5c0.6-2.1,2.9-3.3,5-2.7
	c3.6,1.1,7.3,2.1,11,2.9c2.2,0.5,3.5,2.6,3,4.8C276.1,458.5,274.5,459.8,272.6,459.8z M347.8,458.7c-1.8,0-3.4-1.2-3.9-3
	c-0.6-2.1,0.7-4.3,2.9-4.9c3.7-0.9,7.3-2,10.9-3.2c2.1-0.7,4.4,0.4,5.1,2.5c0.7,2.1-0.4,4.4-2.5,5.1c-3.8,1.3-7.6,2.4-11.5,3.4
	C348.5,458.6,348.1,458.7,347.8,458.7z M244.9,450.8c-0.5,0-1.1-0.1-1.6-0.3c-3.6-1.6-7.3-3.3-10.8-5.1c-2-1-2.7-3.4-1.7-5.4
	c1-2,3.4-2.7,5.4-1.7c3.4,1.7,6.8,3.4,10.3,4.9c2,0.9,3,3.2,2.1,5.3C247.9,449.9,246.4,450.8,244.9,450.8z M375.3,448.8
	c-1.5,0-2.9-0.9-3.6-2.3c-0.9-2-0.1-4.4,1.9-5.3c3.4-1.6,6.8-3.3,10.1-5.2c1.9-1.1,4.4-0.4,5.4,1.5c1.1,1.9,0.4,4.4-1.5,5.4
	c-3.5,1.9-7,3.8-10.6,5.4C376.4,448.7,375.8,448.8,375.3,448.8z M219.3,436.9c-0.8,0-1.5-0.2-2.2-0.7c-3.3-2.2-6.6-4.6-9.7-7
	c-1.7-1.4-2.1-3.9-0.7-5.6c1.4-1.7,3.9-2.1,5.6-0.7c3,2.3,6.1,4.6,9.2,6.7c1.8,1.2,2.3,3.7,1.1,5.5
	C221.8,436.2,220.6,436.9,219.3,436.9z M400.4,434.2c-1.2,0-2.5-0.6-3.3-1.7c-1.3-1.8-0.9-4.3,0.9-5.6c3.1-2.2,6.1-4.5,9-6.9
	c1.7-1.4,4.2-1.2,5.6,0.5c1.4,1.7,1.2,4.2-0.5,5.6c-3.1,2.5-6.3,5-9.5,7.3C402.1,433.9,401.2,434.2,400.4,434.2z M196.6,418.5
	c-1,0-2-0.4-2.8-1.1c-2.8-2.8-5.6-5.7-8.3-8.6c-1.5-1.7-1.3-4.2,0.3-5.6s4.2-1.3,5.6,0.3c2.5,2.8,5.2,5.6,7.9,8.2
	c1.6,1.5,1.6,4.1,0.1,5.7C198.7,418.1,197.6,418.5,196.6,418.5z M461.3,357.4l-7.4-3l1.3-3.7c0.7-2.1,3-3.2,5.1-2.5
	c2.1,0.7,3.2,3,2.5,5.1L461.3,357.4z M153.2,343.7c-1.8,0-3.4-1.2-3.9-3c-1-3.8-1.8-7.8-2.5-11.7c-0.4-2.2,1.1-4.3,3.2-4.6
	c2.2-0.4,4.3,1.1,4.6,3.2c0.7,3.7,1.5,7.5,2.4,11.1c0.5,2.1-0.7,4.3-2.9,4.9C153.9,343.7,153.5,343.7,153.2,343.7z M463.7,339.1
	c-0.3,0-0.6,0-0.9-0.1c-2.2-0.5-3.5-2.6-3-4.8c0.8-3.7,1.5-7.4,2.1-11.2c0.3-2.2,2.4-3.7,4.5-3.4c2.2,0.3,3.7,2.4,3.4,4.5
	c-0.6,3.9-1.3,7.9-2.2,11.8C467.2,337.8,465.6,339.1,463.7,339.1z M148.6,315c-2.1,0-3.8-1.6-4-3.7c-0.3-3.7-0.4-7.5-0.4-11.2
	c0-4,0.1-8,0.4-12c0.2-2.2,2.1-3.9,4.3-3.7c2.2,0.2,3.9,2.1,3.7,4.3c-0.3,3.8-0.4,7.6-0.4,11.4c0,3.6,0.1,7.2,0.4,10.7
	c0.1,2.2-1.5,4.1-3.7,4.3C148.8,315,148.7,315,148.6,315z M467.5,310.2c-0.1,0-0.1,0-0.2,0c-2.2-0.1-3.9-1.9-3.8-4.1
	c0.1-2,0.1-4,0.1-6c0-1.8,0-3.6-0.1-5.4c-0.1-2.2,1.7-4.1,3.9-4.1c2.2-0.1,4.1,1.7,4.1,3.9c0.1,1.9,0.1,3.8,0.1,5.6
	c0,2.1,0,4.2-0.1,6.3C471.4,308.5,469.6,310.2,467.5,310.2z M466,281.1c-2,0-3.7-1.4-4-3.4c-0.5-3.7-1.2-7.5-2-11.2
	c-0.5-2.2,0.9-4.3,3-4.8c2.2-0.5,4.3,0.9,4.8,3c0.9,3.9,1.6,7.8,2.1,11.8c0.3,2.2-1.2,4.2-3.4,4.5
	C466.3,281.1,466.1,281.1,466,281.1z M150.9,275c-0.2,0-0.5,0-0.7-0.1c-2.2-0.4-3.6-2.5-3.2-4.7c0.7-3.9,1.6-7.8,2.6-11.7
	c0.6-2.1,2.7-3.4,4.9-2.9c2.1,0.6,3.4,2.7,2.9,4.9c-1,3.7-1.8,7.4-2.5,11.1C154.4,273.6,152.7,275,150.9,275z M432.4,193.7l-6.5,4.7
	l-5.7-6.3c-1.5-1.6-1.5-4.1,0.1-5.7c1.6-1.5,4.1-1.5,5.7,0.1L432.4,193.7z M189,197.4c-1,0-1.9-0.3-2.7-1c-1.6-1.5-1.8-4-0.3-5.6
	c2.7-3,5.5-5.9,8.3-8.6c1.6-1.5,4.1-1.5,5.7,0.1c1.5,1.6,1.5,4.1-0.1,5.7c-2.7,2.6-5.4,5.4-7.9,8.2
	C191.2,196.9,190.1,197.4,189,197.4z M410.3,181.4c-0.9,0-1.8-0.3-2.6-0.9c-2.9-2.4-5.9-4.8-9-7c-1.8-1.3-2.2-3.8-0.9-5.6
	c1.3-1.8,3.8-2.2,5.6-0.9c3.2,2.3,6.4,4.8,9.5,7.3c1.7,1.4,1.9,3.9,0.5,5.6C412.5,180.9,411.4,181.4,410.3,181.4z M210.4,177.5
	c-1.2,0-2.4-0.5-3.2-1.6c-1.3-1.7-1-4.3,0.7-5.6c3.1-2.4,6.4-4.8,9.7-7c1.8-1.2,4.3-0.7,5.5,1.1c1.2,1.8,0.7,4.3-1.1,5.5
	c-3.1,2.1-6.3,4.3-9.3,6.6C212.1,177.2,211.3,177.5,210.4,177.5z M386.3,164.8c-0.7,0-1.3-0.2-2-0.5c-3.3-1.9-6.7-3.6-10.1-5.2
	c-2-0.9-2.9-3.3-1.9-5.3s3.3-2.9,5.3-1.9c3.6,1.7,7.2,3.5,10.6,5.5c1.9,1.1,2.6,3.5,1.5,5.4C389,164.1,387.7,164.8,386.3,164.8z
	 M235,161.9c-1.5,0-2.9-0.8-3.6-2.2c-1-2-0.2-4.4,1.7-5.4c3.5-1.8,7.2-3.5,10.8-5.1c2-0.9,4.4,0.1,5.2,2.1c0.9,2-0.1,4.4-2.1,5.2
	c-3.5,1.5-6.9,3.1-10.3,4.8C236.2,161.7,235.6,161.9,235,161.9z M359.7,152.9c-0.4,0-0.9-0.1-1.3-0.2c-3.6-1.2-7.2-2.3-10.9-3.3
	c-2.1-0.6-3.4-2.7-2.9-4.9c0.6-2.1,2.7-3.4,4.9-2.9c3.8,1,7.7,2.2,11.5,3.5c2.1,0.7,3.2,3,2.5,5.1
	C362.9,151.8,361.3,152.9,359.7,152.9z M262,151c-1.7,0-3.3-1.1-3.8-2.9c-0.6-2.1,0.6-4.3,2.7-5c3.8-1.1,7.7-2.2,11.6-3
	c2.2-0.5,4.3,0.9,4.8,3c0.5,2.2-0.9,4.3-3,4.8c-3.7,0.8-7.4,1.8-11,2.9C262.8,150.9,262.4,151,262,151z"/>
<g>
	<path class="st1" d="M445.3,254.2c-18.6,0-33.7-15.1-33.7-33.7s15.1-33.7,33.7-33.7s33.7,15.1,33.7,33.7S463.9,254.2,445.3,254.2z
		 M445.3,194.8c-14.2,0-25.7,11.5-25.7,25.7s11.5,25.7,25.7,25.7s25.7-11.5,25.7-25.7S459.5,194.8,445.3,194.8z"/>
</g>
<g>
	<path class="st1" d="M445.3,413.9c-18.6,0-33.7-15.1-33.7-33.7c0-18.6,15.1-33.7,33.7-33.7s33.7,15.1,33.7,33.7
		C479,398.7,463.9,413.9,445.3,413.9z M445.3,354.4c-14.2,0-25.7,11.5-25.7,25.7c0,14.2,11.5,25.7,25.7,25.7s25.7-11.5,25.7-25.7
		C471,365.9,459.5,354.4,445.3,354.4z"/>
</g>
<g>
	<path class="st1" d="M168.8,413.9c-18.6,0-33.7-15.1-33.7-33.7c0-18.6,15.1-33.7,33.7-33.7s33.7,15.1,33.7,33.7
		C202.5,398.7,187.4,413.9,168.8,413.9z M168.8,354.4c-14.2,0-25.7,11.5-25.7,25.7c0,14.2,11.5,25.7,25.7,25.7s25.7-11.5,25.7-25.7
		C194.5,365.9,183,354.4,168.8,354.4z"/>
</g>
<g>
	<path class="st1" d="M168.8,254.2c-18.6,0-33.7-15.1-33.7-33.7s15.1-33.7,33.7-33.7s33.7,15.1,33.7,33.7S187.4,254.2,168.8,254.2z
		 M168.8,194.8c-14.2,0-25.7,11.5-25.7,25.7s11.5,25.7,25.7,25.7s25.7-11.5,25.7-25.7S183,194.8,168.8,194.8z"/>
</g>
<g>
	<path class="st1" d="M307.1,174.1c-18.6,0-33.7-15.1-33.7-33.7s15.1-33.7,33.7-33.7s33.7,15.1,33.7,33.7S325.7,174.1,307.1,174.1z
		 M307.1,114.6c-14.2,0-25.7,11.5-25.7,25.7s11.5,25.7,25.7,25.7s25.7-11.5,25.7-25.7S321.2,114.6,307.1,114.6z"/>
</g>
<g>
	<path class="st1" d="M307.1,493.4c-18.6,0-33.7-15.1-33.7-33.7c0-18.6,15.1-33.7,33.7-33.7s33.7,15.1,33.7,33.7
		C340.8,478.2,325.7,493.4,307.1,493.4z M307.1,433.9c-14.2,0-25.7,11.5-25.7,25.7c0,14.2,11.5,25.7,25.7,25.7s25.7-11.5,25.7-25.7
		C332.8,445.4,321.2,433.9,307.1,433.9z"/>
</g>
<g>
	<g>
		<path class="st2" d="M326.1,269.9c-0.2,0.6-2.5,7.3-3.7,10.1h19.4c-6.9,18.7-16.8,35.9-29.5,50.9l-4.3,5.1l-4.3-5.1
			c-12.7-15-22.6-32.2-29.5-50.9h18.5c-1.2-2.8-3.5-9.5-3.7-10.1h-30.7c10.2,27.5,24.7,52.7,43.3,74.8l6.4,7.5l6.4-7.5
			c18.6-22.1,33.1-47.2,43.3-74.8H326.1z"/>
	</g>
	<g>
		<path class="st2" d="M321,286.6c-3.4,8.4-7.7,16.2-13.2,23.2c-5.4-7-9.8-14.8-13.2-23.2h-10.2c4.8,12.9,11.6,24.8,20.4,35.2l3,3.6
			l3-3.6c8.8-10.4,15.6-22.2,20.4-35.2H321z"/>
	</g>
</g>
<g>
	<polygon class="st3" points="611.6,265 654,169.8 635.9,169.8 604.6,243.1 573.3,169.8 554.5,169.8 596.9,265 	"/>
	<path class="st3" d="M665.7,262.1c5.4,2.8,12,4.3,19.6,4.3c5,0,9.8-0.7,14.3-2.2c4.5-1.4,8.4-3.5,11.6-6.1l-5-11.3
		c-3.1,2.3-6.3,4-9.7,5.1c-3.4,1-7,1.6-10.9,1.6c-6.7,0-11.8-1.8-15.5-5.5c-3.3-3.3-5.1-8.1-5.4-14.4h47.2v-4.5
		c0-6.8-1.1-12.6-3.4-17.7c-2.3-5-5.6-9-10.1-11.7c-4.4-2.8-9.9-4.2-16.5-4.2c-6.7,0-12.5,1.5-17.5,4.5c-5,3-8.9,7.1-11.7,12.4
		c-2.8,5.3-4.2,11.5-4.2,18.6c0,7.3,1.5,13.6,4.4,18.9C656.1,255.2,660.2,259.3,665.7,262.1z M672.7,209.8c2.6-1.8,5.7-2.7,9.5-2.7
		c5,0,8.9,1.7,11.5,5c2.4,3,3.7,7.2,3.9,12.6h-32.6c0.3-2.7,0.9-5.1,1.7-7.2C668.2,214.2,670.1,211.6,672.7,209.8z"/>
	<path class="st3" d="M724.2,213.8V265h16.9v-38.5c0-5.4,1.5-9.7,4.6-13c3.1-3.2,7.2-4.9,12.4-4.9c4.2,0,7.4,1.2,9.5,3.6
		c2.1,2.4,3.2,6.3,3.2,11.8V265h16.9v-41.7c0-9.5-2-16.6-6.1-21.1c-4.1-4.5-10.1-6.8-18.1-6.8c-5.6,0-10.5,1.3-14.7,3.8
		c-3.4,2.1-6.2,4.9-8.2,8.4l-1.1-10.9h-16.3c0.4,2.8,0.6,5.6,0.8,8.5C724.1,208.2,724.2,211,724.2,213.8z"/>
	<path class="st3" d="M813.4,262.1c4.5,2.8,9.7,4.3,15.7,4.3c5.6,0,10.6-1.4,15-4.2c3.2-2,5.6-4.5,7.2-7.5l0.1,10.3h16.7v-51.2
		c0-2.8,0.1-5.6,0.3-8.5c0.2-2.9,0.5-5.7,0.7-8.5H853l-1.2,11.3c-1.6-3.4-4.1-6.2-7.5-8.4c-4.4-2.8-9.4-4.3-15.2-4.3
		c-5.9,0-11.2,1.4-15.7,4.3c-4.5,2.8-8,6.9-10.5,12.1c-2.5,5.3-3.8,11.6-3.8,19c0,7.4,1.3,13.7,3.8,19
		C805.4,255.2,808.9,259.3,813.4,262.1z M821,214c3.2-3.7,7.5-5.5,12.8-5.5c5.3,0,9.6,1.8,12.8,5.5c3.2,3.7,4.9,9.3,4.9,16.9
		c0,7.6-1.6,13.2-4.9,16.9c-3.2,3.7-7.5,5.6-12.8,5.6c-5.4,0-9.7-1.9-12.9-5.6c-3.2-3.7-4.8-9.4-4.8-16.9
		C816.1,223.3,817.7,217.7,821,214z"/>
	<path class="st3" d="M890.6,265h16.9v-55.5h27.9V265h16.9v-68.2h-45v-5.3c0-4.5,1-7.8,3.1-9.8c2.1-2,4.9-3,8.4-3
		c1.5,0,3.1,0.1,4.7,0.4s3,0.6,4.2,1.1V167c-1.6-0.7-3.5-1.2-5.7-1.5c-2.2-0.3-4.3-0.4-6.3-0.4c-8.2,0-14.4,2.2-18.7,6.5
		c-4.3,4.3-6.4,10.7-6.4,19.2v6.1h-13.1v12.7h13.1V265z"/>
	<rect x="934.5" y="167.5" class="st3" width="18.8" height="16.5"/>
	<polygon class="st3" points="556.6,433.1 640.9,433.1 640.9,420.2 571.7,420.2 571.7,372.5 636.8,372.5 636.8,359.6 571.7,359.6 
		571.7,313.7 640.9,313.7 640.9,300.9 556.6,300.9 	"/>
	<path class="st3" d="M700.3,349.7c4.2,0,8.6,0.9,13,2.6c4.4,1.8,8.5,4.4,12.3,8.1l5.4-10.9c-3.8-3.9-8.5-6.9-14.2-9
		c-5.7-2.1-11.5-3.2-17.5-3.2c-9.1,0-17.1,1.9-23.9,5.6c-6.8,3.8-12.1,9.2-15.8,16.4c-3.8,7.2-5.6,15.9-5.6,26.2
		c0,10.1,1.8,18.9,5.5,26.2c3.7,7.4,8.9,13.1,15.8,17.1c6.8,4,14.8,6,24.1,6c5.7,0,11.5-1.1,17.2-3.2c5.7-2.1,10.6-5.2,14.4-9.2
		l-5.4-10.7c-3.9,3.8-8,6.4-12.5,8.1c-4.4,1.6-8.7,2.4-12.8,2.4c-9.8,0-17.3-3.2-22.7-9.6c-5.4-6.4-8.1-15.4-8.1-27
		c0-11.7,2.7-20.7,8.1-26.8C683,352.7,690.5,349.7,700.3,349.7z"/>
	<path class="st3" d="M808.7,343.2c-6.7-3.9-14.6-5.9-23.7-5.9c-9,0-16.8,2-23.5,5.9c-6.7,3.9-11.8,9.5-15.5,16.8
		c-3.6,7.3-5.4,15.9-5.4,26.1c0,10,1.8,18.7,5.4,26c3.6,7.3,8.8,12.9,15.5,16.9c6.7,3.9,14.5,5.9,23.5,5.9c9.1,0,17-2,23.7-5.9
		c6.7-3.9,11.9-9.6,15.6-16.9c3.7-7.3,5.5-16,5.5-26c0-10.1-1.8-18.8-5.5-26.1C820.6,352.7,815.4,347.1,808.7,343.2z M806.4,413.1
		c-5.2,6.2-12.4,9.3-21.4,9.3c-8.9,0-15.9-3.1-21.2-9.3s-7.9-15.2-7.9-27.1c0-12,2.6-21.1,7.9-27.3s12.3-9.3,21.2-9.3
		c9,0,16.1,3.1,21.4,9.3s7.9,15.3,7.9,27.3C814.2,397.9,811.6,406.9,806.4,413.1z"/>
	<path class="st3" d="M890.6,382.5l-17.4-3.6c-4.9-1.1-8.5-2.8-10.8-5.2c-2.3-2.3-3.5-5.3-3.5-8.9c0-4.7,1.8-8.6,5.5-11.5
		c3.7-2.9,9.2-4.4,16.6-4.4c5.1,0,10.1,0.9,14.9,2.7c4.8,1.8,9.1,4.5,12.8,8.2l5.4-10.5c-3.9-3.9-8.7-6.8-14.5-8.9s-12.2-3.1-19-3.1
		c-7.4,0-13.8,1.2-19.3,3.7c-5.5,2.4-9.7,5.8-12.6,9.9c-2.9,4.2-4.3,9-4.3,14.5c0,6.5,2,11.8,6,16c4,4.2,10,7.2,18,8.9l17.4,3.6
		c5.5,1.3,9.5,3,11.9,5.2c2.4,2.2,3.7,5.1,3.7,8.7c0,4.8-1.9,8.5-5.7,11.2c-3.8,2.7-9.5,4-17,4c-5.9,0-11.5-0.9-17-2.6
		c-5.4-1.7-10.5-4.4-15.1-8.1l-5.2,10.7c4.2,3.8,9.6,6.7,16.1,8.7c6.5,2.1,13.5,3.1,21,3.1s14-1.1,19.6-3.4c5.6-2.2,9.9-5.5,13-9.7
		c3.1-4.2,4.7-9.1,4.7-14.7c0-6.6-2.1-11.9-6.3-15.8C905.4,387.3,899.1,384.3,890.6,382.5z"/>
	<path class="st3" d="M972.6,415.7L941.1,339h-16.5l39.9,93.4l-3.3,7.5c-1.9,4.5-4.1,8.2-6.8,11.2s-5.9,5.4-9.8,7.2
		c-3.9,1.8-8.8,3.4-14.7,4.8l3.6,12.6c4.9-0.9,9.4-2.1,13.5-3.6s7.9-3.5,11.3-6.1c3.4-2.6,6.7-5.9,9.7-9.9c3-4.1,5.7-9.1,8.2-15.1
		l43.5-102h-15.9L972.6,415.7z"/>
	<path class="st3" d="M1074.3,382.5l-17.4-3.6c-4.9-1.1-8.5-2.8-10.8-5.2c-2.3-2.3-3.5-5.3-3.5-8.9c0-4.7,1.8-8.6,5.5-11.5
		c3.7-2.9,9.2-4.4,16.6-4.4c5.1,0,10.1,0.9,14.9,2.7c4.8,1.8,9.1,4.5,12.8,8.2l5.4-10.5c-3.9-3.9-8.7-6.8-14.5-8.9s-12.2-3.1-19-3.1
		c-7.4,0-13.8,1.2-19.3,3.7c-5.5,2.4-9.7,5.8-12.6,9.9c-2.9,4.2-4.3,9-4.3,14.5c0,6.5,2,11.8,6,16c4,4.2,10,7.2,18,8.9l17.4,3.6
		c5.5,1.3,9.5,3,11.9,5.2c2.4,2.2,3.7,5.1,3.7,8.7c0,4.8-1.9,8.5-5.7,11.2c-3.8,2.7-9.5,4-17,4c-5.9,0-11.5-0.9-17-2.6
		c-5.4-1.7-10.5-4.4-15.1-8.1l-5.2,10.7c4.2,3.8,9.6,6.7,16.1,8.7c6.5,2.1,13.5,3.1,21,3.1s14-1.1,19.6-3.4c5.6-2.2,9.9-5.5,13-9.7
		c3.1-4.2,4.7-9.1,4.7-14.7c0-6.6-2.1-11.9-6.3-15.8C1089.2,387.3,1082.8,384.3,1074.3,382.5z"/>
	<path class="st3" d="M1143.3,309l-15.2,4.3V339h-18.4v11.8h18.4v51.9c0,10.8,2.4,18.8,7.3,24.1c4.9,5.3,11.9,8,21.2,8
		c2.4,0,4.8-0.2,7.2-0.7c2.4-0.4,4.5-1,6.3-1.8v-12.8c-1.5,0.6-3.2,1.2-5.1,1.6c-1.9,0.4-4,0.7-6.4,0.7c-5.1,0-9-1.6-11.5-4.8
		c-2.6-3.2-3.8-8.5-3.8-16v-50.2h27V339h-27V309z"/>
	<path class="st3" d="M1244,342.7c-5.9-3.6-13.1-5.4-21.8-5.4c-8.8,0-16.5,2-23.2,6.1c-6.8,4.1-12,9.8-15.8,17.1s-5.6,15.9-5.6,25.8
		c0,10.1,1.9,18.8,5.8,26.2c3.9,7.3,9.4,12.9,16.5,16.7c7.1,3.8,15.6,5.7,25.3,5.7c7,0,13.7-1.1,20-3.3c6.3-2.2,11.5-5.3,15.7-9.3
		l-5.2-10.7c-4.5,3.9-9.2,6.7-14.2,8.3c-4.9,1.7-10.2,2.5-15.8,2.5c-10.5,0-18.7-3-24.5-9.1c-5.7-5.9-8.6-14.5-8.7-25.8h69.7v-5.6
		c0-9.1-1.6-17-4.7-23.7C1254.3,351.5,1249.8,346.3,1244,342.7z M1206,353c4.4-3,9.8-4.5,16.2-4.5c8.9,0,15.6,2.8,20.1,8.4
		c4.1,5.2,6.3,12.2,6.7,21h-56.2c0.5-4.6,1.5-8.7,3.1-12.4C1198.2,360.2,1201.6,356,1206,353z"/>
	<path class="st3" d="M1409,346.2c-5.2-5.9-13.1-8.9-23.4-8.9c-8,0-15,2.1-21,6.2c-4.8,3.3-8.4,7.6-10.9,12.8
		c-1.9-5.8-4.9-10.3-8.9-13.3c-4.9-3.8-11.3-5.6-19.2-5.6c-7.8,0-14.3,1.9-19.8,5.8c-4.3,3-7.6,7.1-10.1,12.1l-1.5-16.2h-14.6
		c0.4,3.6,0.7,7.3,1,11c0.3,3.7,0.5,7.3,0.5,10.8v72.4h15.2v-53.4c0-9.1,2.2-16.4,6.8-21.8s10.7-8.2,18.6-8.2c6.9,0,11.9,2,15,6.1
		c3.1,4.1,4.7,10.5,4.7,19.4v57.9h15.2v-53.4c0-9.1,2.3-16.4,6.8-21.8c4.6-5.4,10.8-8.2,18.7-8.2c6.9,0,11.9,2,15,6.1
		c3.1,4.1,4.7,10.5,4.7,19.4v57.9h15.2v-58.9C1416.8,361.5,1414.2,352.1,1409,346.2z"/>
</g>
<rect class="st4" width="1616.8" height="600"/>
<path class="st1" d="M455.4,250c0.6,1.7,2.1,2.7,3.8,2.7c0.4,0,0.9-0.1,1.3-0.2c2.1-0.7,3.2-3,2.5-5.1l-1.4-4l-7.5,2.8L455.4,250z"
	/>
<path class="st1" d="M433.4,405.1c-2.6,3-5.2,6-8,8.9c-0.8,0.8-1.8,1.2-2.9,1.2c-1,0-2-0.4-2.8-1.1c-1.6-1.5-1.6-4.1-0.1-5.7
	c2.6-2.7,5.2-5.6,7.6-8.5L433.4,405.1z"/>
</svg>
