<?xml version="1.0" encoding="utf-8"?>
<!-- Generator: Adobe Illustrator 26.2.1, SVG Export Plug-In . SVG Version: 6.00 Build 0)  -->
<svg version="1.1" id="Layer_1" xmlns="http://www.w3.org/2000/svg" xmlns:xlink="http://www.w3.org/1999/xlink" x="0px" y="0px"
	 viewBox="0 0 96 96" style="enable-background:new 0 0 96 96;" xml:space="preserve">
<style type="text/css">
	.st0{fill:none;}
	.st1{fill:none;stroke:#FF6333;stroke-width:8;stroke-linecap:round;stroke-linejoin:round;stroke-miterlimit:10;}
	.st2{fill:none;stroke:#3D3E62;stroke-width:8;stroke-linecap:round;stroke-miterlimit:10;}
</style>
<g>
	<g>
		<rect class="st0" width="96" height="96"/>
	</g>
</g>
<g>
	<g>
		<path class="st1" d="M49.7,63.8h-3.4c-3.1,0-5.6-2.5-5.6-5.6V37.7c0-3.1,2.5-5.6,5.6-5.6h3.4c3.1,0,5.6,2.5,5.6,5.6v20.5
			C55.3,61.3,52.8,63.8,49.7,63.8z"/>
	</g>
	<g>
		<path class="st2" d="M60.1,14.9c-3.8-1.4-7.8-2.1-12.1-2.1c-19.4,0-35.2,15.8-35.2,35.2c0,19.4,15.8,35.2,35.2,35.2
			c19.4,0,35.2-15.8,35.2-35.2c0-4.2-0.8-8.3-2.1-12.1"/>
		<path class="st2" d="M69.8,20.4c2.1,1.6,3.9,3.5,5.6,5.5"/>
	</g>
</g>
</svg>
